{"asset":{"version":"2.0","generator":"Blockbench 5.0.4 glTF exporter"},"scenes":[{"nodes":[2],"name":"blockbench_export"}],"scene":0,"nodes":[{"name":"wood_base","mesh":0},{"name":"golden_nameplate","mesh":1},{"name":"table_nameplate","children":[0,1]}],"bufferViews":[{"buffer":0,"byteOffset":0,"byteLength":432,"target":34962,"byteStride":12},{"buffer":0,"byteOffset":432,"byteLength":432,"target":34962,"byteStride":12},{"buffer":0,"byteOffset":864,"byteLength":288,"target":34962,"byteStride":8},{"buffer":0,"byteOffset":1152,"byteLength":108,"target":34963},{"buffer":0,"byteOffset":1260,"byteLength":240,"target":34962,"byteStride":12},{"buffer":0,"byteOffset":1500,"byteLength":240,"target":34962,"byteStride":12},{"buffer":0,"byteOffset":1740,"byteLength":160,"target":34962,"byteStride":8},{"buffer":0,"byteOffset":1900,"byteLength":60,"target":34963}],"buffers":[{"byteLength":1960,"uri":"data:application/octet-stream;base64,"}],"accessors":[{"bufferView":0,"componentType":5126,"count":36,"max":[1,0.5,0.1875],"min":[-1,0,-0.1875],"type":"VEC3"},{"bufferView":1,"componentType":5126,"count":36,"max":[1,1,0.9701424837112427],"min":[-1,-1,-0.9701424837112427],"type":"VEC3"},{"bufferView":2,"componentType":5126,"count":36,"max":[1,0.4257218837738037],"min":[0,0],"type":"VEC2"},{"bufferView":3,"componentType":5123,"count":54,"max":[35],"min":[0],"type":"SCALAR"},{"bufferView":4,"componentType":5126,"count":20,"max":[0.9399999976158142,0.48803168535232544,-0.06624999642372131],"min":[-0.9399999976158142,0.014999999664723873,-0.19587677717208862],"type":"VEC3"},{"bufferView":5,"componentType":5126,"count":20,"max":[1,0.9701424837112427,0.24253562092781067],"min":[-1,-0.9701424837112427,-0.9701424837112427],"type":"VEC3"},{"bufferView":6,"componentType":5126,"count":20,"max":[1,0.15937501192092896],"min":[0,0],"type":"VEC2"},{"bufferView":7,"componentType":5123,"count":30,"max":[19],"min":[0],"type":"SCALAR"}],"materials":[{"pbrMetallicRoughness":{"metallicFactor":0,"roughnessFactor":1,"baseColorTexture":{"index":0}},"alphaMode":"MASK","alphaCutoff":0.05,"doubleSided":true},{"pbrMetallicRoughness":{"metallicFactor":0,"roughnessFactor":1,"baseColorTexture":{"index":1}},"alphaMode":"MASK","alphaCutoff":0.05,"doubleSided":true}],"textures":[{"sampler":0,"source":0,"name":"BrownDarkWood.png"},{"sampler":1,"source":1,"name":"LightGoldScratchedMetal.png"}],"samplers":[{"magFilter":9728,"minFilter":9728,"wrapS":33071,"wrapT":33071},{"magFilter":9728,"minFilter":9728,"wrapS":33071,"wrapT":33071}],"images":[{"mimeType":"image/png","uri":"data:image/png;base64,"},{"mimeType":"image/png","uri":"data:image/png;base64,"}],"meshes":[{"primitives":[{"mode":4,"attributes":{"POSITION":0,"NORMAL":1,"TEXCOORD_0":2},"indices":3,"material":0}]},{"primitives":[{"mode":4,"attributes":{"POSITION":4,"NORMAL":5,"TEXCOORD_0":6},"indices":7,"material":1}]}]}