{"asset":{"version":"2.0","generator":"Blockbench 5.0.3 glTF exporter"},"scenes":[{"nodes":[3],"name":"blockbench_export"}],"scene":0,"nodes":[{"name":"cuboid","mesh":0},{"rotation":[0,0,-0.7071067811865475,0.7071067811865476],"translation":[0,-0.0625,0.15625000000000003],"name":"cylinder","mesh":1},{"rotation":[0,0,-0.7071067811865475,0.7071067811865476],"translation":[0,-0.0625,-0.15625000000000003],"name":"cylinder","mesh":2},{"name":"led_ceiling_light_on","children":[0,1,2]}],"bufferViews":[{"buffer":0,"byteOffset":0,"byteLength":480,"target":34962,"byteStride":12},{"buffer":0,"byteOffset":480,"byteLength":480,"target":34962,"byteStride":12},{"buffer":0,"byteOffset":960,"byteLength":320,"target":34962,"byteStride":8},{"buffer":0,"byteOffset":1280,"byteLength":120,"target":34963},{"buffer":0,"byteOffset":1400,"byteLength":720,"target":34962,"byteStride":12},{"buffer":0,"byteOffset":2120,"byteLength":720,"target":34962,"byteStride":12},{"buffer":0,"byteOffset":2840,"byteLength":480,"target":34962,"byteStride":8},{"buffer":0,"byteOffset":3320,"byteLength":144,"target":34963},{"buffer":0,"byteOffset":3464,"byteLength":720,"target":34962,"byteStride":12},{"buffer":0,"byteOffset":4184,"byteLength":720,"target":34962,"byteStride":12},{"buffer":0,"byteOffset":4904,"byteLength":480,"target":34962,"byteStride":8},{"buffer":0,"byteOffset":5384,"byteLength":144,"target":34963}],"buffers":[{"byteLength":5528,"uri":"data:application/octet-stream;base64,"}],"accessors":[{"bufferView":0,"componentType":5126,"count":40,"max":[1.5,0.125,0.3125],"min":[-1.5,-0.0625,-0.3125],"type":"VEC3"},{"bufferView":1,"componentType":5126,"count":40,"max":[1,1,1],"min":[-1,-1,-1],"type":"VEC3"},{"bufferView":2,"componentType":5126,"count":40,"max":[1,1],"min":[0.25,0.46875],"type":"VEC2"},{"bufferView":3,"componentType":5123,"count":60,"max":[39],"min":[0],"type":"SCALAR"},{"bufferView":4,"componentType":5126,"count":60,"max":[0.14433756470680237,1.4375,0.125],"min":[-0.14433756470680237,-1.4375,-0.125],"type":"VEC3"},{"bufferView":5,"componentType":5126,"count":60,"max":[0.8660253882408142,1,1],"min":[-0.8660253882408142,-1,-1],"type":"VEC3"},{"bufferView":6,"componentType":5126,"count":60,"max":[0.9892093539237976,0.578125],"min":[0.890625,0.0625],"type":"VEC2"},{"bufferView":7,"componentType":5123,"count":72,"max":[59],"min":[0],"type":"SCALAR"},{"bufferView":8,"componentType":5126,"count":60,"max":[0.14433756470680237,1.4375,0.125],"min":[-0.14433756470680237,-1.4375,-0.125],"type":"VEC3"},{"bufferView":9,"componentType":5126,"count":60,"max":[0.8660253882408142,1,1],"min":[-0.8660253882408142,-1,-1],"type":"VEC3"},{"bufferView":10,"componentType":5126,"count":60,"max":[0.9892093539237976,0.515625],"min":[0.890625,0.125],"type":"VEC2"},{"bufferView":11,"componentType":5123,"count":72,"max":[59],"min":[0],"type":"SCALAR"}],"materials":[{"pbrMetallicRoughness":{"metallicFactor":0,"roughnessFactor":1,"baseColorTexture":{"index":0}},"alphaMode":"MASK","alphaCutoff":0.05,"doubleSided":true},{"pbrMetallicRoughness":{"metallicFactor":0,"roughnessFactor":1,"baseColorTexture":{"index":1}},"alphaMode":"MASK","alphaCutoff":0.05,"doubleSided":true}],"textures":[{"sampler":0,"source":0,"name":"HardRustMetalOld.png"},{"sampler":1,"source":1,"name":"LedLight.png"}],"samplers":[{"magFilter":9728,"minFilter":9728,"wrapS":33071,"wrapT":33071},{"magFilter":9728,"minFilter":9728,"wrapS":33071,"wrapT":33071}],"images":[{"mimeType":"image/png","uri":"data:image/png;base64,"},{"mimeType":"image/png","uri":"data:image/png;base64,"}],"meshes":[{"primitives":[{"mode":4,"attributes":{"POSITION":0,"NORMAL":1,"TEXCOORD_0":2},"indices":3,"material":0}]},{"primitives":[{"mode":4,"attributes":{"POSITION":4,"NORMAL":5,"TEXCOORD_0":6},"indices":7,"material":1}]},{"primitives":[{"mode":4,"attributes":{"POSITION":8,"NORMAL":9,"TEXCOORD_0":10},"indices":11,"material":1}]}]}