{"asset":{"version":"2.0","generator":"Blockbench 5.0.4 glTF exporter"},"scenes":[{"nodes":[2],"name":"blockbench_export"}],"scene":0,"nodes":[{"translation":[0,0.75,0],"name":"Door","mesh":0},{"translation":[0,0.75,1],"name":"Door","mesh":1},{"rotation":[0,0.7071067811865475,0,0.7071067811865476],"translation":[-0.5,0,0],"name":"heavy_duty_door","children":[0,1]}],"bufferViews":[{"buffer":0,"byteOffset":0,"byteLength":1632,"target":34962,"byteStride":12},{"buffer":0,"byteOffset":1632,"byteLength":1632,"target":34962,"byteStride":12},{"buffer":0,"byteOffset":3264,"byteLength":1088,"target":34962,"byteStride":8},{"buffer":0,"byteOffset":4352,"byteLength":384,"target":34963},{"buffer":0,"byteOffset":4736,"byteLength":24,"target":34963},{"buffer":0,"byteOffset":4760,"byteLength":1632,"target":34962,"byteStride":12},{"buffer":0,"byteOffset":6392,"byteLength":1632,"target":34962,"byteStride":12},{"buffer":0,"byteOffset":8024,"byteLength":1088,"target":34962,"byteStride":8},{"buffer":0,"byteOffset":9112,"byteLength":300,"target":34963},{"buffer":0,"byteOffset":9412,"byteLength":12,"target":34963},{"buffer":0,"byteOffset":9424,"byteLength":84,"target":34963},{"buffer":0,"byteOffset":9508,"byteLength":12,"target":34963}],"buffers":[{"byteLength":9520,"uri":"data:application/octet-stream;base64,"}],"accessors":[{"bufferView":0,"componentType":5126,"count":136,"max":[0,1.25,0.53125],"min":[-0.0625,-0.75,-0.5],"type":"VEC3"},{"bufferView":1,"componentType":5126,"count":136,"max":[1,1,0.8944271802902222],"min":[-1,-1,-1],"type":"VEC3"},{"bufferView":2,"componentType":5126,"count":136,"max":[1,0.890625],"min":[0,0],"type":"VEC2"},{"bufferView":3,"componentType":5123,"count":192,"max":[127],"min":[0],"type":"SCALAR"},{"bufferView":4,"componentType":5123,"count":12,"max":[135],"min":[128],"type":"SCALAR"},{"bufferView":5,"componentType":5126,"count":136,"max":[0,1.25,0.5],"min":[-0.0625,-0.75,-0.5],"type":"VEC3"},{"bufferView":6,"componentType":5126,"count":136,"max":[1,1,1],"min":[-1,-1,-0.7071067690849304],"type":"VEC3"},{"bufferView":7,"componentType":5126,"count":136,"max":[1,1],"min":[0,0],"type":"VEC2"},{"bufferView":8,"componentType":5123,"count":150,"max":[99],"min":[0],"type":"SCALAR"},{"bufferView":9,"componentType":5123,"count":6,"max":[103],"min":[100],"type":"SCALAR"},{"bufferView":10,"componentType":5123,"count":42,"max":[131],"min":[104],"type":"SCALAR"},{"bufferView":11,"componentType":5123,"count":6,"max":[135],"min":[132],"type":"SCALAR"}],"materials":[{"pbrMetallicRoughness":{"metallicFactor":0,"roughnessFactor":1,"baseColorTexture":{"index":0}},"alphaMode":"MASK","alphaCutoff":0.05,"doubleSided":true},{"pbrMetallicRoughness":{"metallicFactor":0,"roughnessFactor":1,"baseColorTexture":{"index":1}},"alphaMode":"MASK","alphaCutoff":0.05,"doubleSided":true}],"textures":[{"sampler":0,"source":0,"name":"RoughBlackMetal.png"},{"sampler":1,"source":1,"name":"HazardPaintedMetal.png"}],"samplers":[{"magFilter":9728,"minFilter":9728,"wrapS":33071,"wrapT":33071},{"magFilter":9728,"minFilter":9728,"wrapS":33071,"wrapT":33071}],"images":[{"mimeType":"image/png","uri":"data:image/png;base64,"},{"mimeType":"image/png","uri":"data:image/png;base64,"}],"meshes":[{"primitives":[{"mode":4,"attributes":{"POSITION":0,"NORMAL":1,"TEXCOORD_0":2},"indices":3,"material":0},{"mode":4,"attributes":{"POSITION":0,"NORMAL":1,"TEXCOORD_0":2},"indices":4,"material":1}]},{"primitives":[{"mode":4,"attributes":{"POSITION":5,"NORMAL":6,"TEXCOORD_0":7},"indices":8,"material":0},{"mode":4,"attributes":{"POSITION":5,"NORMAL":6,"TEXCOORD_0":7},"indices":9,"material":1},{"mode":4,"attributes":{"POSITION":5,"NORMAL":6,"TEXCOORD_0":7},"indices":10,"material":0},{"mode":4,"attributes":{"POSITION":5,"NORMAL":6,"TEXCOORD_0":7},"indices":11,"material":1}]}]}